<svg width="84" height="18" viewBox="0 0 84 18" fill="none" xmlns="http://www.w3.org/2000/svg">
    <path d="M3 16.7577L8.94278 4.04805C9.69368 2.44212 11.9775 2.44212 12.7284 4.04805L16.7783 12.7096C17.5292 14.3156 19.813 14.3156 20.5639 12.7096L24.6139 4.04805C25.3648 2.44212 27.6486 2.44212 28.3995 4.04805L32.4495 12.7096C33.2004 14.3156 35.4842 14.3156 36.2351 12.7096L40.285 4.04805C41.036 2.44212 43.3197 2.44212 44.0706 4.04805L48.1206 12.7096C48.8715 14.3156 51.1553 14.3156 51.9062 12.7096L55.9562 4.04805C56.7071 2.44212 58.9909 2.44212 59.7418 4.04805L63.7917 12.7096C64.5427 14.3156 66.8264 14.3156 67.5773 12.7096L71.6273 4.04805C72.3782 2.44212 74.662 2.44212 75.4129 4.04805L81.3557 16.7577" stroke="#DF6951" stroke-width="5.22371"/>
</svg>